<?xml version="1.0" encoding="utf-8"?>
<!-- Generator: Adobe Illustrator 16.0.3, SVG Export Plug-In . SVG Version: 6.00 Build 0)  -->
<!DOCTYPE svg PUBLIC "-//W3C//DTD SVG 1.1//EN" "http://www.w3.org/Graphics/SVG/1.1/DTD/svg11.dtd">
<svg version="1.1" id="Layer_1" xmlns="http://www.w3.org/2000/svg" xmlns:xlink="http://www.w3.org/1999/xlink" x="0px" y="0px"
	 width="1920px" height="480px" viewBox="0 0 1920 480" enable-background="new 0 0 1920 480" xml:space="preserve">
<g>
	<path fill="#131227" d="M1920,445c0,19.25-15.75,35-35,35H35c-19.25,0-35-15.75-35-35V35C0,15.75,15.75,0,35,0h1850
		c19.25,0,35,15.75,35,35V445z"/>
</g>
<g>
	<g>
		<linearGradient id="SVGID_1_" gradientUnits="userSpaceOnUse" x1="661.2124" y1="143.0054" x2="448.1857" y2="371.4485">
			<stop  offset="0" style="stop-color:#F47B20"/>
			<stop  offset="1" style="stop-color:#ED2224"/>
		</linearGradient>
		<path fill="url(#SVGID_1_)" d="M476.103,397.481l39.502-4.862c0,0,20.054-109.39,100.882-195.08l-1.825,15.801l9.116,0.608
			l-9.116,3.645l8.508,2.433l-9.116,3.645c0,0-4.859,18.84-7.292,20.662c5.468,0,10.939,0.61,10.939,0.61l-11.547,6.685l10.94,2.433
			c0,0-6.684,9.115-12.764,15.8c0.61,8.506-1.82,20.66-2.429,26.131c8.509-3.038,14.586-12.763,18.839-18.232
			c1.825-6.686,3.039-16.408,3.039-16.408l1.82,9.117c0,0,12.155-31.602,8.51-78.397c7.296,8.507,14.588,26.131,14.588,26.131
			l6.075-7.292c0,0,1.215,12.761-2.43,18.839c1.213,6.685,4.865,29.17,6.685,34.642c3.645-3.04,7.898-15.194,7.898-15.194
			s-1.821,17.017-4.86,22.484c4.86-3.645,9.117-12.154,9.725-14.585c-1.215,7.9-2.432,18.23-4.252,22.487
			c12.762-26.742,19.445-46.795-24.312-96.628c9.117-0.608,24.312,3.645,24.312,3.645l4.252-4.253l4.257,8.508
			c0,0,17.015,7.9,21.266,17.017c0-8.508,3.647-14.585,3.647-14.585s4.252,13.977,3.645,20.663
			c4.257,3.039,13.979,9.116,13.979,9.116s-4.257-77.182-84.476-55.304c0.611-21.878-2.428-49.833-2.428-49.833
			s-34.641-10.939-46.797-9.115c15.195,4.861,36.462,13.978,36.462,13.978l-8.505,4.255l7.899,0.606l-4.252,3.646
			c0,0,9.112,20.664,7.292,32.21c-8.51-8.508-28.563-26.131-37.073-31.602c-11.545-1.822-52.261,4.861-60.164,12.154
			c15.194,1.823,21.877,2.431,21.877,2.431l5.471-3.646l1.823,4.254l12.154,1.215l9.725-10.331v12.155c0,0,9.724,3.039,13.977,6.685
			c1.825-6.077,5.471-8.509,5.471-8.509l1.215,9.725l13.975,7.293c0,0-95.409-17.625-96.625,62.594
			c12.762-18.23,19.446-23.7,19.446-23.7l1.824-11.547l3.645,9.116l3.645-9.723l2.433,6.684c0,0,12.156-9.723,20.662-10.939
			c0-3.645,1.823-10.94,1.823-10.94l2.432,7.901c0,0,12.76-7.292,20.663-4.861c-8.51,4.255-54.696,35.855-65.635,70.495
			c12.155-7.9,18.839-14.584,18.839-14.584l1.824-8.509l4.863,3.645l4.253-11.546l1.216,9.724l16.408-12.154l-1.822-10.332
			l6.684,4.861l1.823-14.586l6.077,9.725c0,0,13.373-18.84,21.878-18.84c1.218,4.861,0,9.115,0,9.115
			s-49.224,36.463-103.918,158.613C491.904,378.036,476.103,397.481,476.103,397.481z"/>
		<linearGradient id="SVGID_2_" gradientUnits="userSpaceOnUse" x1="525.9009" y1="114.3442" x2="361.5148" y2="290.6266">
			<stop  offset="0" style="stop-color:#F47B20"/>
			<stop  offset="1" style="stop-color:#ED2224"/>
		</linearGradient>
		<path fill="url(#SVGID_2_)" d="M504.059,370.139c-11.548-64.422-39.502-155.58-98.451-238.229
			c1.216-4.862,7.901-2.433,7.901-2.433l17.015,25.525l3.039-10.331l2.431,13.978l6.076-5.469l-1.215,15.8
			c0,0,14.585,10.94,17.017,18.232c2.432-6.077,3.038-12.762,3.038-12.762l4.255,15.801l23.7,25.523c0,0,3.039-41.932-60.164-91.159
			c16.408,4.861,23.7,10.939,23.7,10.939l4.255-7.9l1.216,10.331l17.014,15.194l4.255-10.333l1.216,12.155l10.33-7.292
			l-2.429,16.409c0,0,14.584,16.408,15.8,24.917c-0.608-22.485,2.43-44.363-21.271-68.064c-23.7-23.702-83.258-16.41-83.258-16.41
			l25.525-5.469l-0.608-7.292l8.509,4.861l17.017-3.646l4.861-12.155l1.215,10.94c0,0,17.015-1.216,23.7,1.822
			c3.647-3.038,1.825-7.9,1.825-7.9l23.093,11.546c0,0-15.192-26.74-46.794-27.347c-31.602-0.608-63.204,29.17-63.204,29.17
			s9.116-31.603,15.193-36.464c-3.646-1.823-5.47-7.901-5.47-7.901l7.901,2.431l-3.039-7.292l9.116,3.039
			c0,0,15.192-8.509,32.816-6.078c-18.839-3.645-49.833-6.685-55.301-1.822c-5.471,4.861-12.763,57.733-12.763,57.733
			s-29.778-9.724-48.011-9.116c-18.231,0.608-51.656,56.518-51.656,56.518l17.017-9.115l3.039-13.978l2.429,9.116l10.332-7.293
			l4.863-13.979l2.43,7.292l6.685-11.545l1.822,9.115l6.078-6.685l3.647,3.646c0,0,20.663-6.076,28.562-1.824
			c-9.115,10.94-63.203,55.304-45.579,101.491c5.47-8.509,4.253-12.763,4.253-12.763l5.47,6.077l-3.646-26.132l7.9,15.801
			c0,0,7.292-20.055,14.586-24.916c-3.039-4.861-4.255-11.547-4.255-11.547l5.471-1.215v-8.507l6.684,1.822
			c0,0,4.861-21.877,20.055-29.778c-4.254,16.41-27.955,97.236,15.192,128.231c-1.823-21.271,2.431-34.034,2.431-34.034
			l-13.369-12.155h7.899l-6.685-8.509l13.371,0.608l-8.509-10.94l7.9,3.647l-3.039-23.701l-8.508-7.292l10.939,1.823l-11.546-12.154
			l7.9,3.646l1.215-17.625c0,0,84.47,106.35,79.611,260.712C496.766,381.682,504.059,370.139,504.059,370.139z"/>
	</g>
	<g>
		<linearGradient id="SVGID_3_" gradientUnits="userSpaceOnUse" x1="859.8843" y1="132.8638" x2="469.9503" y2="551.0166">
			<stop  offset="0" style="stop-color:#F47B20"/>
			<stop  offset="1" style="stop-color:#ED2224"/>
		</linearGradient>
		<path fill="url(#SVGID_3_)" d="M1084.092,341.94c0,2.779-46.916-42.162-122.77-52.851
			c-75.855-14.379-180.65,14.073-296.405,64.453c-115.752,50.383-220.545,73.027-296.401,52.849
			c-75.855-16.489-122.773-67.23-122.773-64.451c0-2.779,46.917,42.158,122.773,52.846c75.856,14.38,180.648-14.067,296.401-64.452
			c115.754-50.379,220.549-73.027,296.405-52.844C1037.176,293.979,1084.092,344.72,1084.092,341.94z"/>
		<linearGradient id="SVGID_4_" gradientUnits="userSpaceOnUse" x1="939.3164" y1="243.3174" x2="645.9731" y2="557.8894">
			<stop  offset="0" style="stop-color:#F47B20"/>
			<stop  offset="1" style="stop-color:#ED2224"/>
		</linearGradient>
		<path fill="url(#SVGID_4_)" d="M509.722,430.615c0,6.998,126.63-36.946,282.835-92.565
			c156.203-57.948,282.833,28.114,282.833,32.733c0-4.619-126.63-103.734-282.833-45.785
			C636.353,380.617,509.722,437.613,509.722,430.615z"/>
	</g>
</g>
</svg>
